<svg viewBox="0 0 280 280" height="280" width="280" data-background-color="#ffffff" preserveAspectRatio="xMidYMid meet" id="tight-bounds" xmlns="http://www.w3.org/2000/svg" xmlns:xlink="http://www.w3.org/1999/xlink"><g><svg viewBox="0 0 280 280" height="280" width="280"><g><svg viewBox="0 0 280 280" height="280" width="280"><g id="textblocktransform"><svg viewBox="0 0 280 280" height="280" width="280" id="textblock"><g><svg viewBox="0 0 280 280" height="280" width="280"><g transform="matrix(1,0,0,1,90.50252531694167,90.50252531694167)"><svg viewBox="0 0 98.99494936611666 98.99494936611666" height="98.99494936611666" width="98.99494936611666"><g id="icon-0"><circle r="49.49747468305833" cx="49.49747468305833" cy="49.49747468305833" fill="#c1c7d7" data-fill-palette-color="accent"></circle></g></svg></g><g id="text-0"><path d="M20.382 91.815l10.475 3.492c0.091 0.531 0.157 0.969 0.196 1.314 0.04 0.345 0.074 0.868 0.102 1.568 0.032 0.709-0.017 1.458-0.146 2.247-0.129 0.789-0.332 1.6-0.61 2.431v0c-1.052 3.155-2.748 5.069-5.088 5.742-2.34 0.673-5.624 0.305-9.852-1.105v0c-4.202-1.401-6.986-3.154-8.351-5.259-1.371-2.108-1.559-4.653-0.564-7.637v0c0.719-2.158 1.846-4.015 3.38-5.57v0l4.418 1.472-0.663 1.99-3.161-1.053c-0.806 0.895-1.461 2.098-1.965 3.608v0c-0.292 0.876-0.471 1.666-0.537 2.371-0.057 0.7 0.031 1.421 0.264 2.162 0.226 0.738 0.636 1.415 1.228 2.028 0.595 0.607 1.438 1.22 2.53 1.838 1.094 0.612 2.434 1.182 4.021 1.711v0c3.701 1.234 6.496 1.64 8.386 1.219 1.898-0.425 3.251-1.85 4.06-4.276v0c0.633-1.898 0.858-3.569 0.676-5.011v0l-7.713-2.571-1.438 4.313-1.79-0.597z" fill="#b6a522" data-fill-palette-color="primary"></path><path d="M13.171 80.215l-1.545-0.815 3.138-5.947 21.59 11.391 1.892-3.587 1.536 0.811-5.049 9.569-1.536-0.81 2.005-3.799-20.045-10.577z" fill="#b6a522" data-fill-palette-color="primary"></path><path d="M47.841 66.727c0.66 1.968 0.259 3.968-1.204 5.998-1.463 2.03-3.234 3.047-5.315 3.049-2.076-0.003-4.376-0.914-6.901-2.733v0c-2.633-1.897-4.258-3.802-4.876-5.715-0.616-1.904-0.177-3.892 1.318-5.966 1.494-2.074 3.242-3.12 5.242-3.138 2.01-0.02 4.332 0.919 6.965 2.816v0c2.524 1.819 4.115 3.715 4.771 5.689zM33.951 61.16c-0.533 0.317-1.017 0.776-1.451 1.379-0.434 0.603-0.717 1.207-0.849 1.813-0.122 0.605-0.117 1.186 0.017 1.745 0.134 0.558 0.398 1.124 0.794 1.697 0.395 0.573 0.87 1.122 1.424 1.646 0.559 0.518 1.218 1.051 1.979 1.598v0c0.983 0.708 1.88 1.26 2.692 1.655 0.812 0.395 1.611 0.654 2.398 0.776 0.785 0.112 1.516 0.008 2.192-0.313 0.677-0.321 1.289-0.861 1.836-1.622 0.548-0.76 0.867-1.512 0.957-2.255 0.09-0.743-0.044-1.467-0.403-2.17-0.36-0.713-0.857-1.392-1.488-2.038-0.632-0.645-1.439-1.322-2.423-2.03v0c-0.76-0.548-1.474-1.004-2.142-1.37-0.672-0.361-1.343-0.638-2.012-0.831-0.673-0.188-1.293-0.26-1.861-0.215-0.572 0.05-1.125 0.228-1.66 0.535z" fill="#b6a522" data-fill-palette-color="primary"></path><path d="M36.405 43.991l1.749-1.728 5.885 5.953c0.451-1.829 1.347-3.406 2.689-4.732v0c1.433-1.416 3.115-1.964 5.049-1.645 1.938 0.324 4.076 1.668 6.414 4.033v0c2.418 2.446 3.742 4.619 3.972 6.517 0.225 1.894-0.502 3.671-2.182 5.332v0c-1.314 1.298-2.752 2.179-4.317 2.643v0l0.542 0.82-1.421 1.404zM45.584 49.78l9.095 9.202c1.176-0.419 2.252-1.111 3.227-2.075v0l0.4-0.395c1.242-1.228 1.723-2.531 1.442-3.91-0.276-1.374-1.371-3.029-3.285-4.966v0c-1.877-1.899-3.502-3.053-4.877-3.464-1.37-0.415-2.59-0.093-3.661 0.966v0c-0.976 0.964-1.756 2.512-2.341 4.642z" fill="#b6a522" data-fill-palette-color="primary"></path><path d="M65.429 31.197v0c-1.329 0.926-2.025 2.097-2.091 3.513-0.06 1.412 0.438 3.01 1.495 4.794v0l8.004-5.578-0.551-0.791c-0.964-1.383-2.061-2.25-3.292-2.599-1.24-0.351-2.428-0.131-3.565 0.661zM74.491 43.637v0c1.625-1.132 2.804-2.582 3.538-4.35v0l1.731 1.167c-0.404 0.942-0.969 1.834-1.696 2.675-0.732 0.845-1.497 1.545-2.293 2.099v0c-2.13 1.484-4.227 1.992-6.292 1.523-2.065-0.47-4.059-2.085-5.984-4.847v0c-1.84-2.641-2.657-5.024-2.45-7.15 0.216-2.124 1.287-3.858 3.214-5.201v0c1.735-1.209 3.498-1.593 5.289-1.153 1.797 0.436 3.355 1.601 4.675 3.495v0c0.302 0.434 0.754 1.175 1.355 2.225v0l-9.758 6.8c0.665 0.931 1.334 1.692 2.007 2.284 0.675 0.582 1.299 0.991 1.871 1.228 0.569 0.231 1.146 0.339 1.731 0.324 0.59-0.02 1.125-0.123 1.605-0.312 0.477-0.194 0.962-0.463 1.457-0.807z" fill="#b6a522" data-fill-palette-color="primary"></path><path d="M94.79 20.751l4.655 10.012c-0.324 0.431-0.597 0.779-0.82 1.045-0.223 0.266-0.58 0.65-1.07 1.151-0.494 0.51-1.071 0.989-1.734 1.437-0.662 0.448-1.391 0.857-2.186 1.227v0c-3.016 1.402-5.572 1.483-7.668 0.244-2.096-1.239-4.084-3.879-5.962-7.921v0c-1.867-4.017-2.505-7.244-1.911-9.682 0.59-2.444 2.312-4.329 5.163-5.655v0c2.063-0.959 4.187-1.415 6.371-1.368v0l1.963 4.224-1.902 0.884-1.405-3.022c-1.204 0.029-2.528 0.379-3.973 1.05v0c-0.837 0.389-1.535 0.802-2.092 1.238-0.548 0.439-1.012 0.998-1.39 1.676-0.381 0.672-0.592 1.434-0.631 2.286-0.033 0.849 0.101 1.883 0.401 3.101 0.307 1.215 0.813 2.581 1.518 4.098v0c1.645 3.537 3.269 5.848 4.873 6.933 1.613 1.088 3.578 1.093 5.895 0.015v0c1.814-0.843 3.183-1.827 4.108-2.95v0l-3.428-7.372-4.123 1.917-0.795-1.711z" fill="#b6a522" data-fill-palette-color="primary"></path><path d="M115.902 24.877v0l-4.059-15.299 2.386-0.633 4.865 18.335-1.95 0.518-0.491-1.147c-1.028 0.875-1.929 1.509-2.704 1.901-0.78 0.401-1.671 0.734-2.674 1v0c-1.889 0.501-3.404 0.374-4.546-0.382-1.144-0.763-1.997-2.205-2.56-4.326v0l-3.279-12.36 2.377-0.631 3.305 12.457c0.395 1.488 0.92 2.477 1.576 2.967 0.656 0.49 1.602 0.572 2.838 0.244v0c0.621-0.165 1.124-0.316 1.51-0.453 0.379-0.135 0.897-0.39 1.552-0.765 0.647-0.379 1.265-0.855 1.854-1.426z" fill="#b6a522" data-fill-palette-color="primary"></path><path d="M125.657 2.074v0c-0.056-0.532 0.065-0.976 0.364-1.33 0.299-0.355 0.695-0.558 1.187-0.61v0c0.526-0.056 0.96 0.047 1.304 0.306 0.344 0.26 0.545 0.669 0.605 1.228 0.06 0.566-0.051 1.011-0.333 1.338-0.282 0.326-0.686 0.517-1.212 0.572v0c-0.506 0.053-0.937-0.052-1.295-0.318-0.358-0.265-0.564-0.66-0.62-1.186zM126.923 9.086l-3.683 0.39-0.183-1.727 6.129-0.648 1.811 17.139 3.683-0.39 0.183 1.727-9.812 1.037-0.183-1.727 3.684-0.389z" fill="#b6a522" data-fill-palette-color="primary"></path><path d="M151.806 8.366l0.303-8.366 2.467 0.089-0.944 26.13-2.006-0.073-0.156-0.969c-1.466 0.717-3.031 1.046-4.696 0.985v0c-1.177-0.043-2.224-0.258-3.14-0.646-0.91-0.381-1.706-0.962-2.388-1.743-0.688-0.775-1.197-1.801-1.526-3.079-0.336-1.278-0.472-2.776-0.41-4.494v0c0.049-1.344 0.223-2.56 0.524-3.647 0.294-1.087 0.675-1.998 1.143-2.731 0.468-0.726 1.019-1.332 1.653-1.818 0.633-0.479 1.309-0.823 2.025-1.032 0.71-0.202 1.46-0.289 2.25-0.26v0c0.869 0.031 1.678 0.161 2.426 0.389 0.748 0.235 1.573 0.656 2.475 1.265zM151.26 23.492v0l0.467-12.93c-1.028-0.64-1.885-1.099-2.572-1.378-0.693-0.273-1.367-0.421-2.022-0.445v0c-1.565-0.057-2.825 0.551-3.782 1.822-0.956 1.264-1.481 3.187-1.575 5.768v0c-0.183 5.069 1.624 7.672 5.423 7.809v0l0.532 0.02c1.21 0.044 2.387-0.178 3.529-0.666z" fill="#b6a522" data-fill-palette-color="primary"></path><path d="M162.545 22.494v0c-0.485 2.339 0.631 3.791 3.35 4.355v0c0.799 0.166 1.643 0.215 2.532 0.147 0.888-0.062 1.637-0.214 2.248-0.457v0l1.232-5.935-1.052-0.219c-0.603-0.125-1.159-0.227-1.669-0.305-0.511-0.072-1.083-0.133-1.715-0.182-0.631-0.056-1.197-0.043-1.699 0.037-0.502 0.08-0.982 0.206-1.442 0.377-0.467 0.176-0.852 0.449-1.153 0.817-0.308 0.367-0.519 0.822-0.632 1.365zM164.038 11.692l-0.084-1.965c2.379-0.265 4.39-0.227 6.035 0.115v0c0.93 0.193 1.739 0.494 2.426 0.903 0.694 0.411 1.275 0.951 1.744 1.623 0.47 0.665 0.767 1.506 0.892 2.522 0.124 1.017 0.051 2.177-0.221 3.481v0l-2.415 11.636-1.739-0.361-0.114-1.326c-0.528 0.273-1.324 0.453-2.388 0.54-1.07 0.085-2.09 0.028-3.06-0.174v0c-1.808-0.375-3.155-1.147-4.04-2.315-0.885-1.168-1.14-2.656-0.765-4.464v0c0.12-0.577 0.323-1.095 0.609-1.554 0.287-0.46 0.701-0.876 1.244-1.249 0.542-0.373 1.188-0.652 1.937-0.839 0.757-0.191 1.69-0.275 2.799-0.249 1.109 0.025 2.348 0.18 3.717 0.464v0l1.661 0.345 0.124-0.6c0.415-2.067 0.355-3.586-0.181-4.558-0.541-0.98-1.458-1.604-2.748-1.872v0c-0.19-0.039-0.398-0.072-0.626-0.099-0.22-0.025-0.414-0.045-0.582-0.06-0.168-0.014-0.398-0.025-0.691-0.03-0.294 0-0.508-0.003-0.643-0.011-0.142-0.009-0.388-0.009-0.738 0.001-0.358 0.014-0.585 0.022-0.682 0.022-0.091 0.009-0.343 0.024-0.758 0.048-0.42 0.015-0.658 0.024-0.713 0.026z" fill="#b6a522" data-fill-palette-color="primary"></path><path d="M186.402 18.318v0l-5.733 14.754-2.292-0.891 6.87-17.682 1.881 0.73-0.288 1.213c1.386-0.093 2.514-0.086 3.383 0.022 0.867 0.114 1.753 0.347 2.658 0.699v0c1.821 0.708 2.973 1.726 3.454 3.055 0.482 1.329 0.325 3.016-0.47 5.061v0l-4.624 11.901-2.293-0.891 4.657-11.985c0.57-1.466 0.745-2.6 0.526-3.403-0.217-0.809-0.918-1.444-2.103-1.905v0c-1.821-0.708-3.697-0.934-5.626-0.678z" fill="#b6a522" data-fill-palette-color="primary"></path><path d="M208.224 43.447v0l-0.102 1.973c-1.931 0.181-3.827-0.285-5.689-1.395v0c-1.931-1.152-3.084-2.817-3.459-4.997-0.375-2.179 0.238-4.611 1.838-7.294v0c3.318-5.563 7.118-7.067 11.4-4.514v0c1.494 0.891 2.745 2.086 3.753 3.583v0l-2.545 4.267-1.788-0.844 1.975-3.31c-0.553-0.719-1.363-1.398-2.432-2.035v0c-0.816-0.487-1.604-0.739-2.366-0.757-0.761-0.018-1.483 0.187-2.165 0.613-0.677 0.43-1.315 0.996-1.914 1.699-0.595 0.697-1.201 1.563-1.818 2.597v0c-1.258 2.109-1.803 3.989-1.634 5.64 0.171 1.66 0.971 2.917 2.402 3.77v0c1.293 0.771 2.808 1.106 4.544 1.004z" fill="#b6a522" data-fill-palette-color="primary"></path><path d="M227.64 41.16v0c-1.245-1.035-2.559-1.397-3.942-1.084-1.377 0.317-2.786 1.221-4.226 2.712v0l7.501 6.238 0.616-0.741c1.078-1.297 1.623-2.584 1.633-3.863 0.01-1.289-0.518-2.376-1.582-3.262zM218.048 53.196v0c1.523 1.266 3.234 2.019 5.133 2.258v0l-0.667 1.979c-1.015-0.139-2.025-0.448-3.028-0.926-1.009-0.482-1.886-1.033-2.633-1.654v0c-1.996-1.66-3.042-3.548-3.136-5.663-0.095-2.115 0.934-4.467 3.086-7.055v0c2.058-2.475 4.139-3.894 6.244-4.259 2.106-0.355 4.061 0.218 5.867 1.72v0c1.626 1.352 2.464 2.95 2.515 4.794 0.056 1.848-0.654 3.659-2.13 5.434v0c-0.338 0.406-0.933 1.038-1.786 1.896v0l-9.145-7.605c-0.721 0.888-1.278 1.735-1.67 2.542-0.382 0.805-0.611 1.515-0.687 2.13-0.072 0.61-0.023 1.195 0.147 1.754 0.175 0.564 0.417 1.052 0.726 1.465 0.313 0.408 0.701 0.805 1.164 1.19z" fill="#b6a522" data-fill-palette-color="primary"></path><path d="M244.732 64.647l8.52-7.24 1.599 1.881-18.838 16.009-1.599-1.881 8.834-7.508-7.234-8.512-8.834 7.507-1.592-1.874 18.837-16.009 1.593 1.874-8.52 7.241z" fill="#b6a522" data-fill-palette-color="primary"></path><path d="M247.435 88.812v0l13.725-7.885 1.23 2.141-16.449 9.45-1.005-1.749 0.98-0.772c-1.111-0.766-1.957-1.472-2.537-2.119-0.589-0.649-1.142-1.424-1.659-2.323v0c-0.973-1.694-1.243-3.191-0.808-4.49 0.44-1.302 1.612-2.5 3.515-3.594v0l11.087-6.37 1.225 2.132-11.174 6.421c-1.334 0.767-2.154 1.531-2.457 2.291-0.304 0.761-0.137 1.696 0.499 2.804v0c0.32 0.557 0.596 1.004 0.829 1.341 0.229 0.331 0.609 0.765 1.141 1.301 0.534 0.527 1.154 1 1.858 1.421z" fill="#b6a522" data-fill-palette-color="primary"></path><path d="M272.742 89.388l0.844 2.309-7.862 2.875c1.475 1.17 2.537 2.642 3.186 4.414v0c0.692 1.892 0.49 3.65-0.604 5.276-1.1 1.628-3.212 3.013-6.336 4.155v0c-3.23 1.181-5.757 1.482-7.579 0.901-1.816-0.583-3.13-1.983-3.941-4.202v0c-0.634-1.735-0.837-3.409-0.608-5.025v0l-0.971 0.152-0.686-1.876zM263.66 95.327l-12.151 4.443c-0.108 1.244 0.073 2.51 0.544 3.798v0l0.194 0.528c0.6 1.64 1.585 2.619 2.955 2.938 1.364 0.321 3.325 0.013 5.882-0.922v0c2.507-0.917 4.234-1.915 5.179-2.995 0.947-1.073 1.162-2.317 0.645-3.73v0c-0.471-1.288-1.554-2.642-3.248-4.06z" fill="#b6a522" data-fill-palette-color="primary"></path><path d="M26.69 192.798l-10.475 3.492c-0.391-0.37-0.707-0.681-0.945-0.933-0.239-0.252-0.58-0.65-1.023-1.194-0.451-0.548-0.861-1.176-1.231-1.885-0.37-0.709-0.694-1.479-0.971-2.311v0c-1.052-3.155-0.843-5.704 0.625-7.646 1.468-1.943 4.317-3.618 8.544-5.028v0c4.202-1.401 7.481-1.669 9.836-0.803 2.361 0.863 4.04 2.787 5.035 5.77v0c0.719 2.158 0.932 4.32 0.638 6.485v0l-4.419 1.473-0.663-1.99 3.161-1.054c0.108-1.2-0.09-2.555-0.593-4.066v0c-0.292-0.876-0.623-1.616-0.994-2.219-0.375-0.595-0.877-1.118-1.507-1.571-0.624-0.455-1.357-0.75-2.2-0.885-0.84-0.129-1.882-0.113-3.127 0.047-1.242 0.167-2.657 0.515-4.243 1.045v0c-3.701 1.234-6.181 2.586-7.44 4.056-1.263 1.479-1.491 3.431-0.682 5.856v0c0.633 1.898 1.455 3.37 2.466 4.415v0l7.713-2.571-1.438-4.313 1.79-0.597z" fill="#b6a522" data-fill-palette-color="primary"></path><path d="M39.558 192.578l1.544-0.815 3.138 5.948-21.589 11.391 1.892 3.587-1.536 0.81-5.049-9.57 1.536-0.81 2.005 3.799 20.044-10.576z" fill="#b6a522" data-fill-palette-color="primary"></path><path d="M36.248 228.342c-2.076 0.003-3.846-1.011-5.309-3.041-1.463-2.03-1.866-4.033-1.21-6.007 0.66-1.968 2.252-3.862 4.777-5.681v0c2.633-1.897 4.955-2.836 6.964-2.816 2.001 0.018 3.748 1.064 5.243 3.138 1.494 2.074 1.933 4.063 1.317 5.967-0.618 1.913-2.243 3.818-4.875 5.715v0c-2.524 1.819-4.827 2.727-6.907 2.725zM45.925 216.928c-0.132-0.606-0.415-1.211-0.849-1.813-0.434-0.603-0.918-1.062-1.451-1.379-0.535-0.307-1.088-0.486-1.66-0.536-0.572-0.05-1.192 0.022-1.862 0.215-0.669 0.193-1.339 0.47-2.011 0.831-0.668 0.366-1.382 0.823-2.143 1.371v0c-0.983 0.708-1.79 1.385-2.422 2.03-0.632 0.645-1.13 1.322-1.494 2.029-0.355 0.709-0.487 1.436-0.397 2.179 0.09 0.743 0.409 1.495 0.956 2.255 0.548 0.76 1.16 1.3 1.836 1.621 0.677 0.321 1.405 0.422 2.187 0.305 0.791-0.116 1.592-0.372 2.404-0.767 0.812-0.395 1.709-0.947 2.692-1.655v0c0.76-0.548 1.419-1.08 1.978-1.599 0.555-0.523 1.03-1.072 1.425-1.645 0.391-0.579 0.656-1.145 0.794-1.698 0.134-0.558 0.14-1.14 0.017-1.744z" fill="#b6a522" data-fill-palette-color="primary"></path><path d="M59.833 219.021l1.749 1.729-5.884 5.953c1.834 0.429 3.422 1.307 4.763 2.634v0c1.433 1.416 2.001 3.092 1.705 5.029-0.301 1.942-1.62 4.095-3.958 6.461v0c-2.418 2.446-4.575 3.796-6.471 4.048-1.891 0.248-3.677-0.459-5.357-2.119v0c-1.314-1.298-2.211-2.727-2.693-4.286v0l-0.813 0.552-1.421-1.404zM54.152 228.267l-9.094 9.202c0.433 1.171 1.137 2.239 2.112 3.202v0l0.4 0.396c1.242 1.228 2.551 1.693 3.926 1.396 1.37-0.292 3.013-1.406 4.927-3.343v0c1.877-1.899 3.012-3.538 3.407-4.918 0.399-1.375 0.063-2.591-1.008-3.649v0c-0.976-0.964-2.532-1.726-4.67-2.286z" fill="#b6a522" data-fill-palette-color="primary"></path><path d="M74.292 242.801v0c-1.329-0.926-2.668-1.174-4.019-0.745-1.345 0.433-2.672 1.453-3.981 3.061v0l8.004 5.578 0.551-0.79c0.964-1.383 1.397-2.713 1.3-3.989-0.1-1.285-0.718-2.323-1.854-3.115zM65.758 255.609v0c1.625 1.132 3.394 1.737 5.306 1.813v0l-0.496 2.028c-1.024-0.053-2.056-0.275-3.096-0.665-1.046-0.395-1.967-0.869-2.763-1.424v0c-2.13-1.484-3.332-3.276-3.607-5.376-0.274-2.1 0.551-4.53 2.476-7.292v0c1.84-2.641 3.793-4.232 5.86-4.774 2.068-0.533 4.065-0.128 5.992 1.216v0c1.735 1.209 2.706 2.73 2.912 4.562 0.213 1.837-0.341 3.702-1.661 5.596v0c-0.302 0.434-0.842 1.114-1.618 2.041v0l-9.758-6.801c-0.643 0.946-1.126 1.838-1.447 2.674-0.312 0.834-0.481 1.561-0.505 2.181-0.02 0.614 0.078 1.192 0.296 1.735 0.223 0.547 0.505 1.013 0.848 1.399 0.347 0.38 0.767 0.743 1.261 1.087z" fill="#b6a522" data-fill-palette-color="primary"></path><path d="M97.593 259.936l-4.654 10.012c-0.538 0.03-0.981 0.046-1.328 0.046-0.347 0.001-0.87-0.025-1.569-0.076-0.708-0.049-1.447-0.182-2.217-0.4-0.77-0.218-1.552-0.511-2.346-0.88v0c-3.016-1.402-4.725-3.304-5.129-5.706-0.404-2.401 0.334-5.623 2.212-9.663v0c1.867-4.017 3.924-6.584 6.171-7.702 2.249-1.124 4.8-1.023 7.652 0.303v0c2.063 0.959 3.78 2.289 5.152 3.989v0l-1.964 4.223-1.902-0.884 1.405-3.022c-0.798-0.902-1.919-1.689-3.364-2.361v0c-0.837-0.389-1.602-0.656-2.295-0.801-0.689-0.136-1.415-0.13-2.177 0.017-0.759 0.141-1.477 0.472-2.154 0.991-0.671 0.522-1.375 1.291-2.112 2.305-0.731 1.018-1.45 2.285-2.155 3.802v0c-1.645 3.537-2.365 6.269-2.161 8.194 0.208 1.934 1.471 3.44 3.789 4.518v0c1.814 0.843 3.449 1.256 4.903 1.239v0l3.427-7.373-4.123-1.916 0.796-1.711z" fill="#b6a522" data-fill-palette-color="primary"></path><path d="M112.649 274.098v0l4.06-15.299 2.386 0.633-4.865 18.336-1.95-0.518 0.142-1.239c-1.326 0.25-2.423 0.354-3.291 0.31-0.876-0.039-1.815-0.191-2.818-0.457v0c-1.889-0.501-3.141-1.363-3.758-2.586-0.615-1.229-0.642-2.905-0.079-5.026v0l3.28-12.36 2.377 0.631-3.305 12.457c-0.395 1.488-0.429 2.607-0.102 3.358 0.327 0.751 1.108 1.291 2.343 1.619v0c0.621 0.165 1.133 0.283 1.536 0.355 0.397 0.071 0.972 0.106 1.727 0.105 0.75-0.009 1.522-0.115 2.317-0.319z" fill="#b6a522" data-fill-palette-color="primary"></path><path d="M128.78 255.092v0c0.056-0.532 0.268-0.941 0.634-1.225 0.366-0.284 0.796-0.4 1.288-0.348v0c0.526 0.056 0.929 0.246 1.212 0.572 0.282 0.326 0.393 0.768 0.334 1.327-0.06 0.566-0.262 0.978-0.606 1.238-0.344 0.26-0.778 0.362-1.304 0.307v0c-0.506-0.053-0.906-0.247-1.2-0.581-0.294-0.334-0.414-0.764-0.358-1.29zM128.552 262.214l-3.683-0.389 0.182-1.727 6.129 0.648-1.811 17.138 3.683 0.389-0.182 1.727-9.812-1.037 0.182-1.727 3.683 0.39z" fill="#b6a522" data-fill-palette-color="primary"></path><path d="M151.208 261.776l-0.303-8.366 2.468-0.089 0.944 26.13-2.006 0.072-0.226-0.956c-1.41 0.821-2.947 1.262-4.612 1.322v0c-1.177 0.043-2.237-0.097-3.179-0.417-0.935-0.314-1.771-0.837-2.507-1.567-0.743-0.723-1.324-1.71-1.744-2.96-0.427-1.25-0.671-2.734-0.734-4.453v0c-0.049-1.344 0.038-2.569 0.259-3.675 0.214-1.106 0.529-2.041 0.943-2.807 0.415-0.758 0.92-1.403 1.518-1.933 0.597-0.524 1.246-0.915 1.946-1.175 0.694-0.253 1.435-0.393 2.224-0.422v0c0.869-0.031 1.685 0.04 2.449 0.213 0.763 0.18 1.616 0.541 2.56 1.083zM151.754 276.902v0l-0.467-12.929c-1.072-0.564-1.96-0.96-2.664-1.19-0.711-0.222-1.394-0.321-2.05-0.297v0c-1.565 0.057-2.778 0.753-3.641 2.09-0.863 1.33-1.247 3.286-1.154 5.867v0c0.183 5.069 2.174 7.535 5.972 7.397v0l0.532-0.019c1.21-0.044 2.368-0.35 3.472-0.919z" fill="#b6a522" data-fill-palette-color="primary"></path><path d="M164.225 272.316v0c0.485 2.339 2.088 3.226 4.806 2.662v0c0.799-0.166 1.593-0.457 2.382-0.874 0.79-0.41 1.416-0.848 1.88-1.313v0l-1.232-5.936-1.052 0.219c-0.603 0.125-1.154 0.253-1.652 0.384-0.498 0.137-1.046 0.309-1.646 0.516-0.601 0.2-1.116 0.437-1.544 0.71-0.428 0.273-0.819 0.58-1.173 0.919-0.358 0.348-0.603 0.75-0.733 1.209-0.137 0.459-0.149 0.96-0.036 1.504zM161.296 261.811l-0.859-1.769c2.077-1.19 3.937-1.955 5.582-2.296v0c0.93-0.193 1.792-0.239 2.585-0.137 0.8 0.101 1.549 0.365 2.246 0.795 0.696 0.423 1.303 1.076 1.821 1.959 0.518 0.883 0.913 1.977 1.184 3.281v0l2.415 11.636-1.74 0.361-0.632-1.171c-0.376 0.461-1.035 0.943-1.976 1.445-0.948 0.504-1.907 0.857-2.876 1.059v0c-1.808 0.375-3.351 0.203-4.628-0.516-1.277-0.719-2.103-1.983-2.478-3.791v0c-0.12-0.577-0.139-1.133-0.06-1.669 0.08-0.536 0.295-1.083 0.644-1.64 0.349-0.558 0.83-1.071 1.444-1.54 0.619-0.477 1.441-0.924 2.468-1.343 1.027-0.418 2.225-0.769 3.595-1.054v0l1.661-0.344-0.125-0.6c-0.441-2.061-1.102-3.431-1.98-4.11-0.887-0.684-1.976-0.892-3.266-0.624v0c-0.19 0.039-0.394 0.092-0.613 0.158-0.212 0.065-0.398 0.124-0.558 0.178-0.16 0.054-0.375 0.136-0.646 0.247-0.269 0.117-0.468 0.2-0.595 0.246-0.134 0.048-0.359 0.146-0.677 0.294-0.323 0.156-0.528 0.253-0.616 0.292-0.08 0.044-0.305 0.159-0.676 0.346-0.379 0.181-0.594 0.284-0.644 0.307z" fill="#b6a522" data-fill-palette-color="primary"></path><path d="M181.805 256.569v0l5.733 14.754-2.292 0.89-6.871-17.682 1.881-0.73 0.606 1.088c0.959-1.004 1.796-1.76 2.511-2.267 0.717-0.501 1.528-0.927 2.432-1.279v0c1.821-0.708 3.358-0.734 4.61-0.079 1.252 0.655 2.276 2.005 3.071 4.05v0l4.624 11.901-2.292 0.891-4.657-11.985c-0.57-1.466-1.206-2.421-1.91-2.865-0.706-0.451-1.652-0.446-2.837 0.015v0c-1.821 0.708-3.357 1.807-4.609 3.298z" fill="#b6a522" data-fill-palette-color="primary"></path><path d="M214.588 253.937v0l1.687 1.026c-0.759 1.785-2.069 3.233-3.93 4.344v0c-1.931 1.152-3.944 1.375-6.041 0.669-2.096-0.705-3.944-2.4-5.545-5.083v0c-3.318-5.563-2.837-9.621 1.444-12.175v0c1.494-0.891 3.139-1.425 4.936-1.601v0l2.546 4.267-1.592 1.172-1.975-3.31c-0.895 0.145-1.878 0.536-2.946 1.173v0c-0.816 0.487-1.413 1.061-1.79 1.722-0.377 0.661-0.54 1.393-0.489 2.197 0.056 0.8 0.252 1.63 0.586 2.491 0.331 0.855 0.804 1.799 1.421 2.833v0c1.258 2.109 2.653 3.482 4.186 4.118 1.542 0.639 3.028 0.531 4.459-0.322v0c1.293-0.771 2.307-1.945 3.043-3.521z" fill="#b6a522" data-fill-palette-color="primary"></path><path d="M217.728 233.637v0c-1.245 1.035-1.84 2.261-1.785 3.677 0.06 1.412 0.692 2.962 1.896 4.651v0l7.501-6.238-0.616-0.741c-1.078-1.297-2.245-2.067-3.501-2.311-1.265-0.245-2.43 0.076-3.495 0.962zM227.813 245.262v0c1.523-1.266 2.575-2.811 3.156-4.635v0l1.824 1.016c-0.322 0.973-0.81 1.909-1.463 2.809-0.658 0.904-1.36 1.666-2.106 2.287v0c-1.996 1.66-4.043 2.344-6.14 2.051-2.097-0.293-4.222-1.733-6.373-4.321v0c-2.058-2.475-3.074-4.78-3.049-6.915 0.035-2.135 0.955-3.953 2.761-5.455v0c1.626-1.352 3.35-1.885 5.171-1.599 1.827 0.282 3.479 1.311 4.955 3.086v0c0.338 0.406 0.851 1.107 1.539 2.101v0l-9.145 7.605c0.742 0.871 1.473 1.573 2.194 2.105 0.722 0.522 1.378 0.877 1.969 1.065 0.587 0.182 1.171 0.241 1.752 0.175 0.586-0.07 1.111-0.219 1.573-0.447 0.459-0.233 0.919-0.543 1.382-0.928z" fill="#b6a522" data-fill-palette-color="primary"></path><path d="M238.549 216.814l-8.52-7.241 1.599-1.881 18.838 16.009-1.599 1.881-8.834-7.507-7.234 8.513 8.833 7.507-1.592 1.874-18.838-16.009 1.593-1.874 8.52 7.241z" fill="#b6a522" data-fill-palette-color="primary"></path><path d="M258.432 204.222v0l-13.724-7.885 1.23-2.141 16.448 9.45-1.005 1.75-1.16-0.459c-0.102 1.346-0.286 2.432-0.553 3.259-0.264 0.836-0.655 1.704-1.172 2.603v0c-0.973 1.694-2.131 2.681-3.471 2.96-1.347 0.276-2.972-0.133-4.875-1.226v0l-11.088-6.371 1.225-2.132 11.175 6.42c1.334 0.767 2.407 1.09 3.217 0.969 0.81-0.121 1.534-0.735 2.171-1.844v0c0.32-0.557 0.567-1.021 0.741-1.391 0.171-0.365 0.354-0.912 0.549-1.641 0.186-0.727 0.283-1.5 0.292-2.321z" fill="#b6a522" data-fill-palette-color="primary"></path><path d="M241.442 185.883l0.844-2.31 7.862 2.875c-0.372-1.846-0.234-3.655 0.414-5.428v0c0.692-1.892 1.98-3.106 3.864-3.641 1.891-0.534 4.398-0.23 7.522 0.912v0c3.23 1.181 5.354 2.581 6.372 4.2 1.012 1.617 1.112 3.534 0.301 5.753v0c-0.634 1.735-1.56 3.145-2.776 4.232v0l0.839 0.51-0.686 1.876zM252.212 187.203l12.151 4.443c0.885-0.881 1.563-1.965 2.034-3.253v0l0.193-0.528c0.6-1.64 0.479-3.024-0.363-4.151-0.836-1.125-2.532-2.155-5.09-3.091v0c-2.507-0.917-4.47-1.268-5.888-1.052-1.416 0.209-2.382 1.02-2.9 2.435v0c-0.471 1.288-0.517 3.021-0.137 5.197z" fill="#b6a522" data-fill-palette-color="primary"></path><path d="M3.542 143.358c0-5.516 4.472-9.987 9.988-9.988 5.516 0 9.987 4.472 9.987 9.988 0 5.516-4.472 9.987-9.987 9.987-5.516 0-9.987-4.472-9.988-9.987z" fill="#b6a522" data-fill-palette-color="primary"></path><path d="M256.483 143.358c0-5.516 4.472-9.987 9.987-9.988 5.516 0 9.987 4.472 9.988 9.988 0 5.516-4.472 9.987-9.988 9.987-5.516 0-9.987-4.472-9.987-9.987z" fill="#b6a522" data-fill-palette-color="primary"></path></g><g id="text-1"></g></svg></g></svg></g></svg></g></svg></g><defs></defs></svg>